<?xml version="1.0"?>
<svg xmlns="http://www.w3.org/2000/svg" xmlns:xlink="http://www.w3.org/1999/xlink" version="1.1" id="Capa_1" x="0px" y="0px" viewBox="0 0 416 416" style="enable-background:new 0 0 416 416;" xml:space="preserve" width="512px" height="512px" class=""><g><g>
	<g>
		<g>
			<path d="M174.187,72.853c16.64-16.747,16.64-43.733,0-60.373c-16.747-16.64-43.733-16.64-60.373,0     c-16.64,16.747-16.64,43.733,0,60.373C130.453,89.493,157.547,89.493,174.187,72.853z" data-original="#000000" class="active-path" data-old_color="#000000" fill="#000000"/>
			<path d="M270.613,277.333h-73.28v-78.507c29.76,24.533,76.907,45.973,117.333,46.08v-46.08     c-35.413,0.427-77.013-18.56-99.627-43.52l-29.867-33.067c-4.16-4.587-9.173-8.107-14.613-10.773     c-6.293-3.093-13.333-4.907-20.587-4.907h-0.533c-26.56,0.107-48.107,21.547-48.107,48.107v122.667c0,35.307,28.693,64,64,64     h108.053L348.053,416l30.613-30.613L270.613,277.333z" data-original="#000000" class="active-path" data-old_color="#000000" fill="#000000"/>
			<path d="M80,298.667v-192H37.333v192c0,58.88,47.787,106.667,106.667,106.667h128v-42.667H144     C108.693,362.667,80,333.973,80,298.667z" data-original="#000000" class="active-path" data-old_color="#000000" fill="#000000"/>
		</g>
	</g>
</g></g> </svg>
